<svg xmlns="http://www.w3.org/2000/svg" width="24" height="24" viewBox="0 0 24 24" fill="none">
  <path d="M7.27082 12.652H9.46314V21.6774C9.46314 21.8556 9.60753 22 9.78573 22H13.5029C13.6811 22 13.8255 21.8556 13.8255 21.6774V12.6945H16.3457C16.5096 12.6945 16.6475 12.5715 16.6662 12.4088L17.049 9.08606C17.0595 8.99464 17.0305 8.90309 16.9693 8.83451C16.9081 8.76587 16.8205 8.72658 16.7286 8.72658H13.8256V6.64374C13.8256 6.01587 14.1637 5.69748 14.8305 5.69748C14.9255 5.69748 16.7286 5.69748 16.7286 5.69748C16.9068 5.69748 17.0511 5.55303 17.0511 5.3749V2.32497C17.0511 2.14677 16.9068 2.00239 16.7286 2.00239H14.1128C14.0943 2.00148 14.0533 2 13.993 2C13.5391 2 11.9615 2.0891 10.7153 3.23555C9.3345 4.506 9.52644 6.02716 9.57231 6.2909V8.72651H7.27082C7.09263 8.72651 6.94824 8.8709 6.94824 9.0491V12.3294C6.94824 12.5075 7.09263 12.652 7.27082 12.652Z" fill="white"/>
</svg>