<svg xmlns="http://www.w3.org/2000/svg" width="24" height="24" viewBox="0 0 24 24" fill="none">
  <path fill-rule="evenodd" clip-rule="evenodd" d="M12.0043 6.71709C11.3111 6.71697 10.6247 6.85342 9.98429 7.11864C9.34384 7.38385 8.76192 7.77263 8.27177 8.26278C7.78161 8.75293 7.39282 9.33484 7.1276 9.97527C6.86238 10.6157 6.72593 11.3021 6.72605 11.9953C6.72593 12.6885 6.86238 13.3749 7.1276 14.0153C7.39282 14.6557 7.78161 15.2376 8.27177 15.7278C8.76192 16.2179 9.34384 16.6067 9.98429 16.8719C10.6247 17.1371 11.3111 17.2736 12.0043 17.2735C12.6975 17.2736 13.3839 17.1371 14.0244 16.8719C14.6648 16.6067 15.2467 16.2179 15.7369 15.7278C16.2271 15.2376 16.6158 14.6557 16.8811 14.0153C17.1463 13.3749 17.2827 12.6885 17.2826 11.9953C17.2827 11.3021 17.1463 10.6157 16.8811 9.97527C16.6158 9.33484 16.2271 8.75293 15.7369 8.26278C15.2467 7.77263 14.6648 7.38385 14.0244 7.11864C13.3839 6.85342 12.6975 6.71697 12.0043 6.71709ZM12.0043 15.4212C11.327 15.421 10.6649 15.22 10.1017 14.8436C9.53862 14.4672 9.09974 13.9323 8.84061 13.3065C8.58147 12.6806 8.51371 11.992 8.6459 11.3277C8.77809 10.6634 9.10428 10.0532 9.58325 9.57424C10.0622 9.09528 10.6724 8.76909 11.3368 8.63691C12.0011 8.50472 12.6897 8.57248 13.3155 8.83161C13.9414 9.09074 14.4763 9.52961 14.8527 10.0927C15.2292 10.6558 15.4302 11.3179 15.4303 11.9953C15.4306 12.4452 15.3421 12.8908 15.17 13.3066C14.9979 13.7224 14.7456 14.1001 14.4274 14.4183C14.1092 14.7365 13.7314 14.9888 13.3157 15.1609C12.8999 15.333 12.4543 15.4214 12.0043 15.4212Z" fill="white"/>
  <path d="M18.7253 6.50875C18.7253 7.18995 18.173 7.74216 17.4918 7.74216C16.8106 7.74216 16.2584 7.18995 16.2584 6.50875C16.2584 5.82756 16.8106 5.27535 17.4918 5.27535C18.173 5.27535 18.7253 5.82756 18.7253 6.50875Z" fill="white"/>
  <path fill-rule="evenodd" clip-rule="evenodd" d="M16.2419 1.77848C14.3493 1.6902 9.66161 1.69448 7.76732 1.77848C6.10275 1.85648 4.63447 2.25847 3.45075 3.44217C1.68049 5.2124 1.69682 7.53309 1.71982 10.8028C1.72253 11.187 1.72532 11.5844 1.72532 11.9954C1.72532 12.3802 1.72326 12.752 1.72127 13.1116C1.70254 16.4912 1.68981 18.7878 3.45075 20.5487C5.22426 22.3214 7.57057 22.304 10.8034 22.28C11.1907 22.2771 11.5909 22.2741 12.0042 22.2741H12.06C15.9805 22.2741 17.3422 22.2741 18.737 21.7341C20.6425 20.9944 22.0808 19.2913 22.2213 16.2322C22.3105 14.3388 22.3053 9.65206 22.2213 7.75781C22.0516 4.14673 20.1136 1.95677 16.2419 1.77848ZM19.2376 19.2399C18.0433 20.4342 16.4229 20.4305 12.923 20.4224C12.6228 20.4217 12.3082 20.421 11.9793 20.421C11.7775 20.421 11.5813 20.4212 11.3906 20.4213C7.53275 20.4241 5.91598 20.4252 4.72104 19.227C3.47789 17.9898 3.49845 16.1074 3.52828 13.3754C3.53311 12.9334 3.53818 12.4691 3.53818 11.9817C3.53818 11.5684 3.53448 11.1652 3.53088 10.7733C3.49325 6.67491 3.46699 3.81434 7.80504 3.59217L7.85423 3.59043C8.90735 3.55321 9.26018 3.54074 11.9673 3.54074L12.0059 3.56645C12.3973 3.56645 12.7815 3.56294 13.1569 3.55951C17.163 3.52289 20.1758 3.49535 20.3725 7.84009C20.4213 8.92436 20.4325 9.25006 20.4325 11.9946C20.4324 12.2408 20.4326 12.4785 20.4329 12.7081V12.7098C20.4364 16.4304 20.4379 18.0339 19.2376 19.2399Z" fill="white"/>
</svg>