<svg xmlns="http://www.w3.org/2000/svg" width="20" height="22" viewBox="0 0 20 22" fill="none">
  <path d="M19.4184 5.64197C18.1915 5.64197 17.0595 5.23553 16.1505 4.54988C15.1079 3.76387 14.3589 2.6109 14.0944 1.282C14.028 0.947855 13.9932 0.608229 13.9902 0.267578H10.4855V9.84408L10.4813 15.0896C10.4813 16.492 9.56811 17.681 8.30219 18.0992C7.923 18.2246 7.52363 18.2776 7.12486 18.2554C6.5975 18.2265 6.10331 18.0673 5.67378 17.8104C4.75971 17.2637 4.13997 16.2719 4.12318 15.1374C4.09673 13.3643 5.53018 11.9187 7.30205 11.9187C7.65181 11.9187 7.98771 11.9758 8.30219 12.0795V8.52105C7.97049 8.47193 7.63291 8.44632 7.29155 8.44632C5.35215 8.44632 3.53829 9.25248 2.24172 10.7048C1.26173 11.8024 0.673908 13.2027 0.583215 14.671C0.46439 16.5999 1.1702 18.4335 2.53899 19.7863C2.74011 19.9849 2.95131 20.1692 3.17216 20.3393C4.34571 21.2424 5.78042 21.732 7.29155 21.732C7.63291 21.732 7.97049 21.7068 8.30219 21.6577C9.71381 21.4486 11.0163 20.8024 12.0441 19.7863C13.3071 18.538 14.0049 16.8808 14.0125 15.1169L13.9944 7.28368C14.5984 7.74952 15.26 8.13536 15.9628 8.43162C17.0625 8.89558 18.2285 9.13071 19.4285 9.13029V5.64113C19.4293 5.64197 19.4192 5.64197 19.4184 5.64197Z" fill="white"/>
</svg>