<svg xmlns="http://www.w3.org/2000/svg" width="26" height="12" viewBox="0 0 26 12" fill="none">
  <path d="M5.04503 2.0594C5.32955 1.66397 5.52247 1.13289 5.4716 0.590332C5.05536 0.613314 4.54753 0.895636 4.25328 1.29152C3.98923 1.63039 3.75557 2.18354 3.81637 2.70335C4.28368 2.74841 4.75058 2.44379 5.04503 2.0594Z" fill="black"/>
  <path d="M5.46643 2.80478C4.78756 2.75972 4.21082 3.23289 3.88679 3.23289C3.56255 3.23289 3.06626 2.82732 2.52944 2.83836C1.83091 2.84962 1.18284 3.28899 0.828207 3.98747C0.0990765 5.38443 0.635691 7.45735 1.34496 8.59519C1.68926 9.15848 2.10429 9.77811 2.65103 9.7558C3.16779 9.73327 3.37023 9.38403 3.99804 9.38403C4.62564 9.38403 4.80803 9.7558 5.35498 9.74453C5.92199 9.73327 6.27662 9.18124 6.62092 8.61795C7.01609 7.9758 7.1776 7.35618 7.18773 7.32238C7.1776 7.31111 6.09424 6.84899 6.08411 5.46329C6.07398 4.30291 6.93483 3.75089 6.97536 3.71687C6.4892 2.91744 5.72967 2.82732 5.46623 2.80478" fill="black"/>
  <path d="M12.2325 1.23486C13.7073 1.23486 14.7346 2.36528 14.7346 4.01099C14.7346 5.66256 13.6863 6.79883 12.1956 6.79883H10.5626V9.68649H9.38281V1.23486H12.2325ZM10.5626 5.69771H11.9163C12.9438 5.69771 13.5282 5.08282 13.5282 4.01685C13.5282 2.9511 12.9436 2.34184 11.9216 2.34184H10.5626V5.69771Z" fill="black"/>
  <path d="M15.0273 7.93501C15.0273 6.85147 15.7701 6.23072 17.1396 6.13699L18.6092 6.0374V5.56874C18.6092 4.88378 18.2037 4.50885 17.482 4.50885C16.8866 4.50885 16.4546 4.8484 16.3654 5.36956H15.3011C15.3329 4.27452 16.2599 3.47803 17.5136 3.47803C18.8621 3.47803 19.7418 4.2628 19.7418 5.48109V9.68617H18.6515V8.67292H18.6252C18.3143 9.33468 17.6294 9.75039 16.8866 9.75039C15.7911 9.75039 15.0273 9.02442 15.0273 7.93501ZM18.6092 7.39042V6.91591L17.2976 7.00964C16.56 7.06236 16.1758 7.36676 16.1758 7.89964C16.1758 8.41516 16.576 8.74908 17.2028 8.74908C18.0032 8.74908 18.6092 8.18083 18.6092 7.39042Z" fill="black"/>
  <path d="M20.7443 11.9468V10.9338C20.818 10.9453 20.997 10.957 21.0918 10.957C21.6132 10.957 21.9083 10.7114 22.0874 10.0785L22.1928 9.70376L20.1963 3.5542H21.4288L22.8196 8.54406H22.8459L24.2365 3.5542H25.4376L23.3673 10.014C22.8931 11.4959 22.3506 11.9822 21.2024 11.9822C21.1129 11.9822 20.8231 11.9704 20.7443 11.9468Z" fill="black"/>
</svg>