<svg xmlns="http://www.w3.org/2000/svg" width="49" height="49" viewBox="0 0 49 49" fill="none">
  <path d="M15.7593 6.98438C15.5478 6.98438 15.345 7.06838 15.1955 7.21792C15.0459 7.36745 14.9619 7.57026 14.9619 7.78174V8.60063C14.0657 8.70428 13.3784 9.42589 13.3672 10.2615V10.9712C13.3672 11.8507 14.2004 12.5659 15.225 12.5659C15.4029 12.5858 16.4299 12.5069 16.5566 12.6353V13.2939C16.4291 13.4239 15.4052 13.3417 15.225 13.3633C15.1335 13.3668 15.0439 13.3368 14.9731 13.2787C14.9506 13.0686 14.8456 12.8759 14.6811 12.7432C14.5166 12.6104 14.3062 12.5484 14.096 12.5707C12.573 12.9558 13.7691 14.9197 14.9619 14.9357V15.7553C14.9619 15.9668 15.0459 16.1696 15.1955 16.3192C15.345 16.4687 15.5478 16.5527 15.7593 16.5527C15.9707 16.5527 16.1736 16.4687 16.3231 16.3192C16.4726 16.1696 16.5566 15.9668 16.5566 15.7553V14.9349C17.4561 14.824 18.1514 14.1654 18.1514 13.3633V12.5659C18.1514 11.6864 17.3181 10.9712 16.2935 10.9712C16.1133 10.9552 15.0911 11.027 14.9619 10.9018C14.9611 10.8739 14.9579 10.2831 14.9699 10.2743C15.0416 10.0909 16.1284 10.2025 16.2935 10.1738C16.4434 10.1738 16.5383 10.2456 16.5558 10.2791C16.614 10.7136 17.0159 11.0214 17.4457 10.9648C18.9551 10.5566 17.7351 8.62136 16.5566 8.60142V7.78174C16.5566 7.57026 16.4726 7.36745 16.3231 7.21792C16.1736 7.06838 15.9707 6.98438 15.7593 6.98438ZM34.8959 7.78174H23.7329C22.6939 7.78572 22.6875 9.37167 23.7329 9.37646H34.8959C35.9349 9.37247 35.9413 7.78652 34.8959 7.78174ZM34.8959 10.9712H23.7329C22.6939 10.9752 22.6875 12.5611 23.7329 12.5659H34.8959C35.9349 12.5619 35.9413 10.976 34.8959 10.9712ZM34.8959 14.1606H23.7329C22.6939 14.1646 22.6875 15.7506 23.7329 15.7553H34.8959C35.9349 15.7514 35.9413 14.1654 34.8959 14.1606ZM35.6933 19.7422C35.6933 19.5307 35.6093 19.3279 35.4598 19.1783C35.3102 19.0288 35.1074 18.9448 34.8959 18.9448H14.1645C13.9531 18.9448 13.7503 19.0288 13.6007 19.1783C13.4512 19.3279 13.3672 19.5307 13.3672 19.7422C13.3672 19.9536 13.4512 20.1564 13.6007 20.306C13.7503 20.4555 13.9531 20.5395 14.1645 20.5395H34.8959C35.1074 20.5395 35.3102 20.4555 35.4598 20.306C35.6093 20.1564 35.6933 19.9536 35.6933 19.7422ZM29.5297 23.729C29.5297 23.5175 29.4457 23.3147 29.2962 23.1651C29.1466 23.0156 28.9438 22.9316 28.7323 22.9316H14.1645C13.9531 22.9316 13.7503 23.0156 13.6007 23.1651C13.4512 23.3147 13.3672 23.5175 13.3672 23.729C13.3672 23.9404 13.4512 24.1432 13.6007 24.2928C13.7503 24.4423 13.9531 24.5263 14.1645 24.5263H28.7323C28.9438 24.5263 29.1466 24.4423 29.2962 24.2928C29.4457 24.1432 29.5297 23.9404 29.5297 23.729ZM14.1645 26.9184C13.1248 26.9224 13.12 28.5083 14.1645 28.5131H24.3548C24.5663 28.5131 24.7691 28.4291 24.9186 28.2796C25.0682 28.1301 25.1522 27.9272 25.1522 27.7158C25.1522 27.5043 25.0682 27.3015 24.9186 27.1519C24.7691 27.0024 24.5663 26.9184 24.3548 26.9184H14.1645Z" fill="black"/>
  <path d="M22.7746 38.0839H6.98681C5.66797 38.0839 4.59472 37.0107 4.59472 35.6918V34.0971H22.2403C22.4518 34.0971 22.6546 34.0131 22.8041 33.8636C22.9537 33.714 23.0377 33.5112 23.0377 33.2997C23.0377 33.0883 22.9537 32.8854 22.8041 32.7359C22.6546 32.5864 22.4518 32.5024 22.2403 32.5024H10.9736V4.59472H38.0839V22.7746C38.0839 22.986 38.1679 23.1888 38.3174 23.3384C38.467 23.4879 38.6698 23.5719 38.8813 23.5719C39.0927 23.5719 39.2955 23.4879 39.4451 23.3384C39.5946 23.1888 39.6786 22.986 39.6786 22.7746V3.79736C39.6786 3.58589 39.5946 3.38308 39.4451 3.23354C39.2955 3.08401 39.0927 3 38.8813 3H10.1763C9.96478 3 9.76197 3.08401 9.61243 3.23354C9.4629 3.38308 9.37889 3.58589 9.37889 3.79736V32.5024H3.79736C3.58589 32.5024 3.38308 32.5864 3.23354 32.7359C3.08401 32.8854 3 33.0883 3 33.2997V35.6918C3 37.8901 4.78848 39.6786 6.98681 39.6786H22.7746C23.8095 39.6738 23.8231 38.0895 22.7746 38.0839Z" fill="black"/>
  <path d="M34.8935 23.7344C28.7379 23.7344 23.7305 28.7418 23.7305 34.8974C24.3436 49.7068 45.4458 49.7028 46.0566 34.8974C46.0566 28.7418 41.0492 23.7344 34.8935 23.7344ZM34.8935 44.4658C29.6174 44.4658 25.3252 40.1736 25.3252 34.8974C25.8514 22.2034 43.938 22.2074 44.4619 34.8974C44.4619 40.1736 40.1697 44.4658 34.8935 44.4658Z" fill="black"/>
  <path d="M39.9054 30.379L33.2442 37.792L29.7916 35.0316C28.9759 34.3825 27.9816 35.6216 28.7949 36.2762L32.836 39.508C32.9949 39.635 33.1965 39.6964 33.3993 39.6796C33.602 39.6629 33.7908 39.5692 33.9267 39.4179L41.091 31.4442C41.7816 30.6692 40.6086 29.6039 39.9054 30.379Z" fill="black"/>
</svg>