<svg xmlns="http://www.w3.org/2000/svg" width="49" height="49" viewBox="0 0 49 49" fill="none">
  <path d="M46.2797 13.0964L24.8422 2.37762C24.736 2.32452 24.6188 2.29688 24.5 2.29688C24.3812 2.29687 24.264 2.32452 24.1578 2.37762L2.72028 13.0964C2.59301 13.16 2.48597 13.2578 2.41119 13.3788C2.3364 13.4998 2.29682 13.6393 2.29689 13.7816V35.2191C2.29611 35.362 2.33535 35.5023 2.41018 35.6241C2.485 35.7459 2.59242 35.8443 2.72028 35.9082L24.1578 46.6269C24.264 46.68 24.3812 46.7077 24.5 46.7077C24.6188 46.7077 24.736 46.68 24.8422 46.6269L46.2797 35.9082C46.4076 35.8443 46.515 35.7459 46.5899 35.6241C46.6647 35.5023 46.7039 35.362 46.7031 35.2191V13.7816C46.7032 13.6393 46.6636 13.4998 46.5888 13.3788C46.5141 13.2578 46.407 13.16 46.2797 13.0964ZM24.5 23.6444L18.5151 20.6516L37.645 10.4894L44.2294 13.7816L24.5 23.6444ZM12.3901 17.5891L31.52 7.42692L35.9607 9.64723L16.833 19.8109L12.3901 17.5891ZM11.4844 18.8485L16.0781 21.1454V27.2459L14.3226 25.4903C14.179 25.3467 13.9843 25.266 13.7813 25.266H11.4844V18.8485ZM24.5 3.91883L29.838 6.58473L10.708 16.7484L4.77445 13.7816L24.5 3.91883ZM3.82814 15.0204L9.95314 18.0829V26.0316C9.95314 26.2347 10.0338 26.4294 10.1774 26.573C10.321 26.7166 10.5157 26.7972 10.7188 26.7972H13.4643L16.3025 29.6354C16.4095 29.7424 16.5459 29.8153 16.6944 29.8449C16.8429 29.8744 16.9969 29.8592 17.1367 29.8013C17.2766 29.7434 17.3962 29.6453 17.4803 29.5194C17.5644 29.3935 17.6094 29.2455 17.6094 29.0941V21.911L23.7344 24.9735V44.6991L3.82814 34.7459V15.0204ZM25.2656 44.6991V24.9735L45.1719 15.0204V34.7459L25.2656 44.6991Z" fill="black"/>
</svg>