<svg xmlns="http://www.w3.org/2000/svg" width="50" height="49" viewBox="0 0 50 49" fill="none">
  <path d="M24.855 2C30.7521 2 36.0953 4.39461 39.9642 8.25458C42.7922 11.0701 44.7724 14.6235 45.6791 18.5096C46.5859 22.3958 46.3828 26.4586 45.093 30.2349C44.7438 29.8287 44.3645 29.4494 43.9582 29.1002C44.517 27.2394 44.8 25.3067 44.7981 23.3638C44.7981 17.8598 42.5643 12.883 38.9546 9.27318C37.1055 7.41797 34.9079 5.94663 32.4881 4.94377C30.0684 3.94091 27.4743 3.42633 24.855 3.42962C19.3509 3.42962 14.3651 5.6634 10.7643 9.27318C8.91014 11.1212 7.43941 13.3173 6.43659 15.7355C5.43377 18.1536 4.91861 20.746 4.92072 23.3638C4.92072 28.8768 7.1545 33.8537 10.7643 37.4635C13.0149 39.7228 15.7763 41.4073 18.8151 42.3746C21.8539 43.3419 25.0809 43.5636 28.2235 43.0211C28.5183 43.4678 28.8489 43.8878 29.2064 44.2899C27.7751 44.5881 26.3169 44.7378 24.855 44.7366C18.9578 44.7366 13.6146 42.342 9.75462 38.4821C7.76713 36.4987 6.19137 34.1419 5.11797 31.5474C4.04458 28.9528 3.49472 26.1717 3.50004 23.3638C3.50004 17.4667 5.88571 12.1235 9.75462 8.26351C13.6146 4.39461 18.9578 2 24.855 2Z" fill="black"/>
  <path d="M9.74616 10.3726C11.9085 11.4359 14.2137 12.2758 16.6441 12.8566C24.4353 14.707 32.6295 13.7515 39.786 10.1582C39.4598 9.78835 39.12 9.43071 38.7674 9.08594C34.4062 11.1976 29.6292 12.3109 24.7838 12.3449C19.9384 12.3789 15.1463 11.3327 10.7558 9.28251C10.3984 9.63098 10.0678 9.99732 9.74616 10.3726ZM5.08203 20.7999C7.79831 22.4082 10.7469 23.6948 13.8742 24.5884C20.9642 26.6205 28.4866 26.5895 35.5597 24.499C38.7853 23.5429 41.8232 22.1759 44.5842 20.4693C44.5116 19.9595 44.4192 19.4528 44.3072 18.9503C41.5284 20.7373 38.4457 22.158 35.1576 23.1319C28.3444 25.1482 21.0975 25.1792 14.2673 23.2213C11.1262 22.325 8.12285 21.0022 5.34115 19.2898C5.23818 19.7927 5.15472 20.2994 5.09097 20.8088L5.08203 20.7999ZM9.06709 35.5428C14.6316 37.6456 20.5657 38.5941 26.5084 38.3306C26.4558 37.8559 26.4349 37.3783 26.4459 36.9009C25.8179 36.9308 25.1893 36.9457 24.5606 36.9456C18.7327 36.9772 12.9645 35.7712 7.63747 33.4073C8.06636 34.1489 8.54885 34.8637 9.06709 35.5428Z" fill="black"/>
  <path d="M24.8546 2C27.5977 2 30.028 4.48396 31.7346 8.48689C33.3608 12.3111 34.3705 17.5739 34.3705 23.3638C34.3685 24.5505 34.3238 25.7366 34.2365 26.92C33.7326 27.0589 33.2398 27.2351 32.7622 27.4472C32.8817 26.0894 32.9413 24.7269 32.9409 23.3638C32.9409 17.7615 31.9759 12.6953 30.4212 9.0498C28.9469 5.57404 26.9722 3.42962 24.8546 3.42962C22.7459 3.42962 20.7713 5.57404 19.297 9.0498C17.7423 12.6953 16.7773 17.7615 16.7773 23.3638C16.7773 28.9751 17.7423 34.0413 19.297 37.6868C20.7713 41.1626 22.7459 43.307 24.8546 43.307C25.3968 43.302 25.9299 43.1672 26.4093 42.9139C26.8575 42.6754 27.2697 42.3746 27.6334 42.0204C27.8568 42.4671 28.107 42.8692 28.3929 43.2713C27.9852 43.6289 27.5351 43.935 27.0526 44.1827C26.3747 44.5402 25.621 44.7302 24.8546 44.7366C22.1115 44.7366 19.6901 42.2527 17.9835 38.2497C16.3573 34.4255 15.3477 29.1627 15.3477 23.3638C15.3477 17.565 16.3573 12.3111 17.9835 8.48689C19.6812 4.48396 22.1115 2 24.8635 2H24.8546Z" fill="black"/>
  <path d="M37.0525 26.547C38.4458 26.5434 39.8262 26.8154 41.114 27.3473C42.4019 27.8791 43.5719 28.6604 44.5568 29.646C45.5416 30.6317 46.3219 31.8024 46.8526 33.0907C47.3834 34.379 47.6542 35.7596 47.6495 37.1529C47.653 38.5456 47.3814 39.9251 46.8501 41.2124C46.3188 42.4997 45.5383 43.6693 44.5536 44.6541C43.5689 45.6388 42.3993 46.4192 41.112 46.9505C39.8247 47.4818 38.4451 47.7535 37.0525 47.75C35.6584 47.7559 34.2768 47.4859 32.9875 46.9557C31.6981 46.4255 30.5264 45.6454 29.5398 44.6604C28.5531 43.6755 27.7711 42.505 27.2387 41.2166C26.7063 39.9281 26.434 38.5471 26.4376 37.1529C26.4328 35.7581 26.7042 34.3761 27.2361 33.0866C27.768 31.7971 28.5499 30.6256 29.5366 29.6397C30.5233 28.6538 31.6955 27.8729 32.9854 27.3421C34.2754 26.8113 35.6576 26.5411 37.0525 26.547ZM43.5394 30.6571C42.6897 29.8013 41.6791 29.122 40.5658 28.6585C39.4525 28.195 38.2584 27.9563 37.0525 27.9563C35.8465 27.9563 34.6525 28.195 33.5391 28.6585C32.4258 29.122 31.4152 29.8013 30.5656 30.6571C29.7084 31.5069 29.028 32.5181 28.5637 33.6322C28.0993 34.7464 27.8603 35.9414 27.8603 37.1485C27.8603 38.3555 28.0993 39.5506 28.5637 40.6647C29.028 41.7789 29.7084 42.79 30.5656 43.6398C31.4152 44.4957 32.4258 45.1749 33.5391 45.6385C34.6525 46.102 35.8465 46.3406 37.0525 46.3406C38.2584 46.3406 39.4525 46.102 40.5658 45.6385C41.6791 45.1749 42.6897 44.4957 43.5394 43.6398C44.3952 42.7902 45.0745 41.7796 45.538 40.6663C46.0015 39.553 46.2402 38.3589 46.2402 37.1529C46.2402 35.947 46.0015 34.7529 45.538 33.6396C45.0745 32.5263 44.3952 31.5068 43.5394 30.6571Z" fill="black"/>
  <path d="M32.2716 37.6087C32.184 37.4405 32.033 37.3139 31.8521 37.257C31.6711 37.2 31.4749 37.2172 31.3066 37.3049C31.1384 37.3926 31.0119 37.5435 30.9549 37.7245C30.8979 37.9055 30.9152 38.1017 31.0028 38.2699L32.915 41.9333C32.9664 42.0365 33.0421 42.1258 33.1355 42.1934C33.2289 42.2611 33.3373 42.3051 33.4514 42.3218C33.5655 42.3385 33.6819 42.3273 33.7908 42.2892C33.8997 42.2511 33.9977 42.1873 34.0765 42.1031L42.967 33.1948C43.0902 33.0588 43.1564 32.8806 43.1518 32.6972C43.1473 32.5138 43.0724 32.3391 42.9427 32.2094C42.813 32.0796 42.6383 32.0047 42.4548 32.0002C42.2714 31.9957 42.0933 32.0619 41.9573 32.1851L33.737 40.4054L32.2716 37.6087Z" fill="black"/>
</svg>