<svg xmlns="http://www.w3.org/2000/svg" width="10" height="11" viewBox="0 0 10 11" fill="none">
  <path d="M5.00211 6.33835L1.26098 2.59738C1.15821 2.49437 1.02081 2.4377 0.874309 2.4377C0.727723 2.4377 0.590406 2.49437 0.48748 2.59738L0.159837 2.92518C0.056748 3.02803 0 3.16551 0 3.31201C0 3.45851 0.056748 3.59583 0.159837 3.69876L4.61398 8.15299C4.71724 8.25632 4.8552 8.3129 5.00187 8.3125C5.14919 8.3129 5.28699 8.2564 5.39032 8.15299L9.84016 3.7029C9.94325 3.59998 10 3.46266 10 3.31608C10 3.16957 9.94325 3.03225 9.84016 2.92925L9.51252 2.60152C9.29927 2.38827 8.95211 2.38827 8.73894 2.60152L5.00211 6.33835Z" fill="white"/>
</svg>