<svg xmlns="http://www.w3.org/2000/svg" width="23" height="22" viewBox="0 0 23 22" fill="none">
  <path fill-rule="evenodd" clip-rule="evenodd" d="M4.57922 14.52C4.81261 14.52 5.03644 14.6127 5.20147 14.7778C5.3665 14.9428 5.45922 15.1666 5.45922 15.4V17.16C5.45922 17.3934 5.55193 17.6172 5.71696 17.7823C5.882 17.9473 6.10583 18.04 6.33922 18.04H16.8992C17.1326 18.04 17.3564 17.9473 17.5215 17.7823C17.6865 17.6172 17.7792 17.3934 17.7792 17.16V15.4C17.7792 15.1666 17.8719 14.9428 18.037 14.7778C18.202 14.6127 18.4258 14.52 18.6592 14.52C18.8926 14.52 19.1164 14.6127 19.2815 14.7778C19.4465 14.9428 19.5392 15.1666 19.5392 15.4V17.16C19.5392 17.8602 19.2611 18.5317 18.766 19.0268C18.2709 19.5219 17.5994 19.8 16.8992 19.8H6.33922C5.63905 19.8 4.96755 19.5219 4.47246 19.0268C3.97736 18.5317 3.69922 17.8602 3.69922 17.16V15.4C3.69922 15.1666 3.79193 14.9428 3.95696 14.7778C4.122 14.6127 4.34583 14.52 4.57922 14.52Z" fill="#0F61FF"/>
  <path fill-rule="evenodd" clip-rule="evenodd" d="M6.5975 9.49815C6.76252 9.33317 6.98631 9.24049 7.21966 9.24049C7.453 9.24049 7.67679 9.33317 7.84182 9.49815L11.6197 13.276L15.3975 9.49815C15.4787 9.4141 15.5758 9.34706 15.6831 9.30094C15.7905 9.25482 15.906 9.23054 16.0228 9.22953C16.1397 9.22851 16.2555 9.25078 16.3637 9.29502C16.4718 9.33927 16.5701 9.40461 16.6527 9.48724C16.7353 9.56986 16.8007 9.66812 16.8449 9.77627C16.8892 9.88442 16.9115 10.0003 16.9104 10.1171C16.9094 10.234 16.8851 10.3495 16.839 10.4568C16.7929 10.5642 16.7259 10.6613 16.6418 10.7425L12.2418 15.1425C12.0768 15.3074 11.853 15.4001 11.6197 15.4001C11.3863 15.4001 11.1625 15.3074 10.9975 15.1425L6.5975 10.7425C6.43252 10.5774 6.33984 10.3537 6.33984 10.1203C6.33984 9.88696 6.43252 9.66317 6.5975 9.49815Z" fill="#0F61FF"/>
  <path fill-rule="evenodd" clip-rule="evenodd" d="M11.6183 3.08008C11.8517 3.08008 12.0755 3.17279 12.2405 3.33782C12.4056 3.50286 12.4983 3.72669 12.4983 3.96008V14.5201C12.4983 14.7535 12.4056 14.9773 12.2405 15.1423C12.0755 15.3074 11.8517 15.4001 11.6183 15.4001C11.3849 15.4001 11.1611 15.3074 10.996 15.1423C10.831 14.9773 10.7383 14.7535 10.7383 14.5201V3.96008C10.7383 3.72669 10.831 3.50286 10.996 3.33782C11.1611 3.17279 11.3849 3.08008 11.6183 3.08008Z" fill="#0F61FF"/>
</svg>