<svg width="48" height="48" viewBox="0 0 48 48" fill="none" xmlns="http://www.w3.org/2000/svg">
<path d="M19.655 13.6335C19.3337 13.6335 19.0255 13.7611 18.7983 13.9883C18.5711 14.2156 18.4434 14.5237 18.4434 14.845V31.8026C18.4434 32.1239 18.5711 32.4321 18.7983 32.6593C19.0255 32.8865 19.3337 33.0141 19.655 33.0141C19.9763 33.0141 20.2844 32.8865 20.5117 32.6593C20.7389 32.4321 20.8665 32.1239 20.8665 31.8026V14.845C20.8664 14.5238 20.7387 14.2157 20.5115 13.9885C20.2843 13.7613 19.9762 13.6336 19.655 13.6335ZM24.5 10C24.1787 10 23.8705 10.1276 23.6433 10.3548C23.4161 10.5821 23.2885 10.8902 23.2885 11.2115V36.9508C23.2885 37.2721 23.4161 37.5803 23.6433 37.8075C23.8705 38.0347 24.1787 38.1623 24.5 38.1623C24.8213 38.1623 25.1295 38.0347 25.3567 37.8075C25.5839 37.5803 25.7115 37.2721 25.7115 36.9508V11.211C25.7114 10.8898 25.5837 10.5817 25.3565 10.3547C25.1293 10.1276 24.8212 10 24.5 10ZM29.6476 15.1476C29.3263 15.1476 29.0182 15.2753 28.791 15.5025C28.5638 15.7297 28.4361 16.0378 28.4361 16.3592V30.2885C28.4361 30.6098 28.5638 30.9179 28.791 31.1452C29.0182 31.3724 29.3263 31.5 29.6476 31.5C29.969 31.5 30.2771 31.3724 30.5043 31.1452C30.7315 30.9179 30.8592 30.6098 30.8592 30.2885V16.3592C30.8592 16.0378 30.7315 15.7297 30.5043 15.5025C30.2771 15.2753 29.969 15.1476 29.6476 15.1476ZM34.7958 14.845C34.4745 14.845 34.1663 14.9727 33.9391 15.1999C33.7119 15.4271 33.5843 15.7352 33.5843 16.0565V30.8948C33.5843 31.2161 33.7119 31.5242 33.9391 31.7515C34.1663 31.9787 34.4745 32.1063 34.7958 32.1063C35.1171 32.1063 35.4253 31.9787 35.6525 31.7515C35.8797 31.5242 36.0073 31.2161 36.0073 30.8948V16.056C36.0071 15.7348 35.8793 15.4269 35.6521 15.1998C35.425 14.9728 35.117 14.8452 34.7958 14.845ZM39.6408 19.0843C39.3195 19.0843 39.0114 19.2119 38.7842 19.4391C38.557 19.6663 38.4293 19.9745 38.4293 20.2958V26.3524C38.4293 26.6737 38.557 26.9818 38.7842 27.209C39.0114 27.4362 39.3195 27.5639 39.6408 27.5639C39.9622 27.5639 40.2703 27.4362 40.4975 27.209C40.7247 26.9818 40.8524 26.6737 40.8524 26.3524V20.2958C40.8524 20.1367 40.821 19.9792 40.7601 19.8322C40.6993 19.6852 40.61 19.5516 40.4975 19.4391C40.385 19.3266 40.2515 19.2374 40.1045 19.1765C39.9575 19.1156 39.7999 19.0843 39.6408 19.0843ZM44.7885 20.9016C44.4672 20.9016 44.159 21.0292 43.9318 21.2564C43.7046 21.4836 43.577 21.7918 43.577 22.1131V24.5356C43.577 24.8569 43.7046 25.1651 43.9318 25.3923C44.159 25.6195 44.4672 25.7471 44.7885 25.7471C45.1098 25.7471 45.4179 25.6195 45.6452 25.3923C45.8724 25.1651 46 24.8569 46 24.5356V22.1131C46 21.7918 45.8724 21.4836 45.6452 21.2564C45.4179 21.0292 45.1098 20.9016 44.7885 20.9016ZM14.5068 14.845C14.1855 14.845 13.8773 14.9727 13.6501 15.1999C13.4229 15.4271 13.2953 15.7352 13.2953 16.0565V30.8948C13.2953 31.2161 13.4229 31.5242 13.6501 31.7515C13.8773 31.9787 14.1855 32.1063 14.5068 32.1063C14.8281 32.1063 15.1363 31.9787 15.3635 31.7515C15.5907 31.5242 15.7183 31.2161 15.7183 30.8948V16.056C15.7182 15.7348 15.5905 15.4268 15.3633 15.1997C15.1361 14.9726 14.828 14.845 14.5068 14.845ZM9.35916 19.0843C9.03785 19.0843 8.72969 19.2119 8.50248 19.4391C8.27528 19.6663 8.14764 19.9745 8.14764 20.2958V26.3524C8.14764 26.6737 8.27528 26.9818 8.50248 27.209C8.72969 27.4362 9.03785 27.5639 9.35916 27.5639C9.68048 27.5639 9.98864 27.4362 10.2158 27.209C10.443 26.9818 10.5707 26.6737 10.5707 26.3524V20.2958C10.5707 20.1367 10.5394 19.9792 10.4785 19.8322C10.4176 19.6852 10.3283 19.5516 10.2158 19.4391C10.1033 19.3266 9.96978 19.2374 9.82279 19.1765C9.6758 19.1156 9.51826 19.0843 9.35916 19.0843ZM4.21152 20.9016C3.8903 20.9016 3.58223 21.0291 3.35504 21.2562C3.12785 21.4833 3.00014 21.7913 3 22.1126V24.5351C3 24.8564 3.12764 25.1645 3.35485 25.3918C3.58205 25.619 3.89021 25.7466 4.21152 25.7466C4.53284 25.7466 4.841 25.619 5.0682 25.3918C5.29541 25.1645 5.42305 24.8564 5.42305 24.5351V22.1126C5.42277 21.7914 5.29501 21.4834 5.06786 21.2564C4.8407 21.0293 4.5327 20.9017 4.21152 20.9016Z" fill="black"/>
</svg>
