<svg width="48" height="48" viewBox="0 0 48 48" fill="none" xmlns="http://www.w3.org/2000/svg">
<path d="M32.7918 6H15.1641C13.4194 6 12 7.4194 12 9.16406V38.8359C12 40.5806 13.4194 42 15.1641 42H32.7918C34.5364 42 35.9558 40.5806 35.9558 38.8359V9.16406C35.9559 7.4194 34.5365 6 32.7918 6ZM32.7918 39.8906H15.1641C14.5825 39.8906 14.1094 39.4175 14.1094 38.8359V9.16406C14.1094 8.58251 14.5825 8.10938 15.1641 8.10938H32.7918C33.3733 8.10938 33.8464 8.58251 33.8464 9.16406V38.8359H33.8465C33.8465 39.4175 33.3734 39.8906 32.7918 39.8906Z" fill="black"/>
<path d="M23.9787 10.0457C21.4771 10.0457 19.4419 12.0809 19.4419 14.5825C19.4419 17.0841 21.4771 19.1193 23.9787 19.1193C26.4803 19.1193 28.5155 17.0841 28.5155 14.5826C28.5155 12.081 26.4803 10.0457 23.9787 10.0457ZM23.9787 17.01C22.6402 17.01 21.5513 15.921 21.5513 14.5826C21.5513 13.2441 22.6402 12.1551 23.9787 12.1551C25.3172 12.1551 26.4061 13.244 26.4061 14.5825C26.4061 15.921 25.3172 17.01 23.9787 17.01ZM23.9787 20.693C19.3937 20.693 15.6637 24.4231 15.6637 29.008C15.6637 33.593 19.3937 37.323 23.9787 37.323C28.5636 37.323 32.2937 33.5929 32.2937 29.008C32.2937 24.4231 28.5636 20.693 23.9787 20.693ZM23.9787 35.2136C20.5569 35.2136 17.773 32.4298 17.773 29.008C17.773 25.5862 20.5569 22.8024 23.9787 22.8024C27.4004 22.8024 30.1843 25.5862 30.1843 29.008C30.1843 32.4298 27.4004 35.2136 23.9787 35.2136Z" fill="black"/>
<path d="M23.9788 25.5006C22.0445 25.5006 20.4708 27.0743 20.4708 29.0086C20.4708 30.9428 22.0445 32.5165 23.9788 32.5165C25.9131 32.5165 27.4867 30.9428 27.4867 29.0086C27.4867 27.0743 25.9131 25.5006 23.9788 25.5006ZM23.9788 30.4071C23.2076 30.4071 22.5802 29.7797 22.5802 29.0086C22.5802 28.2374 23.2076 27.61 23.9788 27.61C24.7499 27.61 25.3773 28.2374 25.3773 29.0086C25.3773 29.7797 24.7499 30.4071 23.9788 30.4071Z" fill="black"/>
</svg>
