<svg width="48" height="48" viewBox="0 0 48 48" fill="none" xmlns="http://www.w3.org/2000/svg">
<path fill-rule="evenodd" clip-rule="evenodd" d="M24.0255 5.0815C24.1926 5.00733 24.3775 4.98307 24.5581 5.01165C24.7386 5.04023 24.907 5.12042 25.043 5.24256L34.5167 13.7689C34.6157 13.8577 34.6948 13.9664 34.7489 14.0879C34.8031 14.2093 34.8311 14.3408 34.8311 14.4737C34.8311 14.6067 34.8031 14.7382 34.7489 14.8596C34.6948 14.9811 34.6157 15.0897 34.5167 15.1786L25.8255 23.0001L34.5167 30.8216C34.6157 30.9104 34.6948 31.0191 34.7489 31.1406C34.8031 31.262 34.8311 31.3935 34.8311 31.5264C34.8311 31.6594 34.8031 31.7909 34.7489 31.9123C34.6948 32.0338 34.6157 32.1424 34.5167 32.2313L25.043 40.7576C24.9068 40.8799 24.7381 40.9601 24.5573 40.9885C24.3765 41.0169 24.1914 40.9924 24.0242 40.9178C23.8571 40.8433 23.7151 40.7219 23.6155 40.5684C23.5159 40.4149 23.4628 40.2358 23.4628 40.0528V25.1279L15.5693 32.2313C15.3817 32.3946 15.1374 32.4775 14.8891 32.4622C14.6409 32.4469 14.4086 32.3346 14.2424 32.1496C14.0763 31.9645 13.9896 31.7215 14.001 31.473C14.0124 31.2246 14.1211 30.9906 14.3036 30.8216L22.9948 23.0001L14.3036 15.1786C14.1211 15.0096 14.0124 14.7756 14.001 14.5271C13.9896 14.2787 14.0763 14.0357 14.2424 13.8506C14.4086 13.6656 14.6409 13.5533 14.8891 13.538C15.1374 13.5227 15.3817 13.6056 15.5693 13.7689L23.4628 20.8742V5.9474C23.4628 5.7641 23.5159 5.58473 23.6158 5.43104C23.7157 5.27734 23.858 5.15592 24.0255 5.0815ZM25.3575 25.1279L32.4685 31.5264L25.3575 37.925V25.1279ZM25.3575 20.8723V8.0752L32.4685 14.4737L25.3575 20.8723Z" fill="black"/>
</svg>
