<svg xmlns="http://www.w3.org/2000/svg" width="25" height="24" viewBox="0 0 25 24" fill="none">
  <path d="M11.9482 19.7712C12.0947 19.9177 12.2934 20 12.5006 20C12.7078 20 12.9065 19.9177 13.053 19.7712C13.1996 19.6247 13.2819 19.426 13.2819 19.2188V12.7819H19.7188C19.926 12.7819 20.1247 12.6996 20.2712 12.5531C20.4177 12.4066 20.5 12.2078 20.5 12.0006C20.5 11.7934 20.4177 11.5947 20.2712 11.4482C20.1247 11.3017 19.926 11.2194 19.7188 11.2194H13.2819V4.78125C13.2819 4.57405 13.1996 4.37534 13.053 4.22882C12.9065 4.08231 12.7078 4 12.5006 4C12.2934 4 12.0947 4.08231 11.9482 4.22882C11.8017 4.37534 11.7194 4.57405 11.7194 4.78125V11.2194H5.28125C5.07405 11.2194 4.87534 11.3017 4.72882 11.4482C4.58231 11.5947 4.5 11.7934 4.5 12.0006C4.5 12.2078 4.58231 12.4066 4.72882 12.5531C4.87534 12.6996 5.07405 12.7819 5.28125 12.7819H11.7194V19.2188C11.7194 19.426 11.8017 19.6247 11.9482 19.7712Z" fill="#1E1E1E"/>
</svg>